<svg xmlns="http://www.w3.org/2000/svg" xmlns:xlink="http://www.w3.org/1999/xlink" width="400" zoomAndPan="magnify" viewBox="0 0 300 299.999988" height="400" preserveAspectRatio="xMidYMid meet" version="1.0"><defs><clipPath id="a818c14513"><path d="M 8.347656 9.785156 L 292 9.785156 L 292 289.382812 L 8.347656 289.382812 Z M 8.347656 9.785156 " clip-rule="nonzero"/></clipPath><clipPath id="a6f5fb0e80"><path d="M 30.847656 9.785156 L 269.152344 9.785156 C 275.117188 9.785156 280.839844 12.152344 285.0625 16.375 C 289.28125 20.59375 291.652344 26.316406 291.652344 32.285156 L 291.652344 266.882812 C 291.652344 272.847656 289.28125 278.574219 285.0625 282.792969 C 280.839844 287.011719 275.117188 289.382812 269.152344 289.382812 L 30.847656 289.382812 C 24.882812 289.382812 19.160156 287.011719 14.9375 282.792969 C 10.71875 278.574219 8.347656 272.847656 8.347656 266.882812 L 8.347656 32.285156 C 8.347656 26.316406 10.71875 20.59375 14.9375 16.375 C 19.160156 12.152344 24.882812 9.785156 30.847656 9.785156 Z M 30.847656 9.785156 " clip-rule="nonzero"/></clipPath><clipPath id="d5d2ea2d54"><path d="M 0.347656 0.785156 L 283.839844 0.785156 L 283.839844 280.382812 L 0.347656 280.382812 Z M 0.347656 0.785156 " clip-rule="nonzero"/></clipPath><clipPath id="f933170159"><path d="M 22.847656 0.785156 L 261.152344 0.785156 C 267.117188 0.785156 272.839844 3.152344 277.0625 7.375 C 281.28125 11.59375 283.652344 17.316406 283.652344 23.285156 L 283.652344 257.882812 C 283.652344 263.847656 281.28125 269.574219 277.0625 273.792969 C 272.839844 278.011719 267.117188 280.382812 261.152344 280.382812 L 22.847656 280.382812 C 16.882812 280.382812 11.160156 278.011719 6.9375 273.792969 C 2.71875 269.574219 0.347656 263.847656 0.347656 257.882812 L 0.347656 23.285156 C 0.347656 17.316406 2.71875 11.59375 6.9375 7.375 C 11.160156 3.152344 16.882812 0.785156 22.847656 0.785156 Z M 22.847656 0.785156 " clip-rule="nonzero"/></clipPath><clipPath id="abfc9d5de1"><rect x="0" width="284" y="0" height="281"/></clipPath></defs><g clip-path="url(#a818c14513)"><g clip-path="url(#a6f5fb0e80)"><g transform="matrix(1, 0, 0, 1, 8, 9)"><g clip-path="url(#abfc9d5de1)"><g clip-path="url(#d5d2ea2d54)"><g clip-path="url(#f933170159)"><path fill="#26a69a" d="M 0.347656 0.785156 L 283.222656 0.785156 L 283.222656 280.382812 L 0.347656 280.382812 Z M 0.347656 0.785156 " fill-opacity="1" fill-rule="nonzero"/></g></g></g></g></g></g><path fill="#f5f5f5" d="M 79.976562 236.785156 L 111.054688 149.925781 C 111.402344 148.960938 111.402344 147.902344 111.054688 146.9375 L 80.171875 63.253906 C 78.789062 59.496094 82.742188 56.027344 86.101562 58.050781 L 233.84375 146.261719 C 236.613281 147.902344 236.613281 151.996094 233.84375 153.636719 L 85.953125 241.992188 C 82.644531 243.96875 78.691406 240.546875 79.976562 236.785156 " fill-opacity="1" fill-rule="nonzero"/></svg>